<svg width="936" height="845" viewBox="0 0 936 845" fill="none" xmlns="http://www.w3.org/2000/svg">
<path d="M798.983 0.477539C625.18 0.477539 542.889 224.724 542.889 224.724L556.29 244.262C571.684 235.039 590.144 224.724 611.472 224.724C634.706 224.724 653.932 241.77 653.932 286.921C653.932 361.641 568.356 545.348 491.473 545.348C457.312 545.348 441.962 490.035 419.802 390.248C412.356 360.985 399.13 286.113 379.97 165.849C362.232 54.3919 349.576 9.80928 286.466 9.80928C141.963 9.83113 0 210.803 0 210.803L20.6277 253.615C36.0218 244.393 54.3283 234.012 81.2625 234.012C132.503 234.012 137.649 290.855 167.124 396.171C193.62 492.766 219.678 587.679 246.656 685.958C273.634 784.215 329.189 844.292 397.51 844.292C500.013 844.292 598.575 757.531 732.567 584.511C794.954 504.808 860.581 397.679 895.048 322.216C929.8 246.076 935.625 181.365 935.625 151.643C935.625 65.2754 901.464 0.477539 798.961 0.477539H798.983Z" fill="currentColor"/>
</svg>
